<svg t="1724576949810" class="icon" viewBox="0 0 1024 1024" version="1.1" xmlns="http://www.w3.org/2000/svg" p-id="1658" width="200" height="200"><path d="M949.312 569.28a135.36 135.36 0 0 0-80.448-112.32l-40.704-191.104c-14.848-69.888-85.056-126.72-156.48-126.72H351.36c-71.488 0-141.696 56.832-156.544 126.72L154.24 456.96c-45.248 20.16-76.8 63.36-80.512 112.32l-9.216 122.56a118.528 118.528 0 0 0 73.088 119.424 97.28 97.28 0 0 0 185.536 9.152h376.832a97.28 97.28 0 0 0 185.6-9.152 118.464 118.464 0 0 0 72.96-119.424l-9.216-122.56z m-94.336 194.432a27.392 27.392 0 0 0-21.12 25.344 42.496 42.496 0 1 1-84.864 1.6 27.328 27.328 0 0 0-27.264-24.96H301.376a27.328 27.328 0 0 0-27.264 24.96 42.432 42.432 0 0 1-84.864-1.6 27.392 27.392 0 0 0-21.12-25.344 63.168 63.168 0 0 1-49.024-67.776l9.152-122.56c2.432-31.872 26.432-60.8 58.496-70.272a27.392 27.392 0 0 0 19.328-22.976c0.192-1.536 0.32-3.2 0.384-4.672 0.064-0.832 0.064-1.664 0.256-2.368l41.6-195.84c9.664-45.248 56.832-83.456 103.04-83.456h320.32c46.208 0 93.44 38.208 103.04 83.392l41.6 195.84c0.192 0.832 0.192 1.664 0.256 2.432l0.384 4.608c1.28 10.88 8.96 19.904 19.392 23.04 32 9.536 56.064 38.4 58.432 70.272l9.216 122.56a63.168 63.168 0 0 1-49.024 67.84zM300.8 482.752h421.312a30.912 30.912 0 0 0 24.32-10.24 31.36 31.36 0 0 0 6.592-25.728l-0.384-1.984-33.152-143.872a52.928 52.928 0 0 0-49.664-41.6H353.216a52.992 52.992 0 0 0-49.728 41.6L270.4 444.8a30.976 30.976 0 0 0 5.888 27.328c5.76 6.848 14.4 10.624 24.576 10.624z m55.744-168.768h309.888l26.24 114.048H330.304l26.24-114.048z m-88.704 262.4a61.824 61.824 0 1 0 0 123.712 61.824 61.824 0 0 0 0-123.648z m487.232 0a61.824 61.824 0 1 0 0 123.712 61.824 61.824 0 0 0 0-123.648z" p-id="1659" fill="#13227a"></path></svg>